<svg width="800" height="600" viewBox="0 0 800 600" xmlns="http://www.w3.org/2000/svg" role="img" aria-label="Road background">
  <defs>
    <linearGradient id="sky" x1="0" y1="0" x2="0" y2="1">
      <stop offset="0%" stop-color="#0f172a" />
      <stop offset="45%" stop-color="#1e293b" />
      <stop offset="100%" stop-color="#334155" />
    </linearGradient>
    <linearGradient id="grass" x1="0" y1="0" x2="0" y2="1">
      <stop offset="0%" stop-color="#143f2b" />
      <stop offset="100%" stop-color="#1f5f3b" />
    </linearGradient>
    <linearGradient id="road" x1="0" y1="0" x2="0" y2="1">
      <stop offset="0%" stop-color="#3a3f48" />
      <stop offset="100%" stop-color="#262b33" />
    </linearGradient>
    <linearGradient id="roadSide" x1="0" y1="0" x2="1" y2="0">
      <stop offset="0%" stop-color="#9ca3af" />
      <stop offset="100%" stop-color="#6b7280" />
    </linearGradient>
  </defs>

  <rect width="800" height="600" fill="url(#sky)" />
  <rect x="0" y="300" width="800" height="300" fill="url(#grass)" />

  <path d="M0 300 C140 240 225 200 400 200 C575 200 660 240 800 300 L800 600 L0 600 Z" fill="#0f172a" opacity="0.24" />

  <path d="M220 0 C270 160 530 160 580 0 L580 600 220 600 Z" fill="url(#road)" />
  <path d="M230 0 C280 160 520 160 570 0 L570 600 230 600 Z" fill="#1f242d" />

  <rect x="230" y="0" width="340" height="600" fill="rgba(255,255,255,0.04)" />

  <path d="M235 0 C285 170 515 170 565 0" fill="none" stroke="white" stroke-width="8" opacity="0.18" />
  <path d="M235 600 C285 430 515 430 565 600" fill="none" stroke="white" stroke-width="8" opacity="0.18" />

  <g stroke="#f8fafc" stroke-width="12" stroke-linecap="round">
    <path d="M400 70 L400 126" />
    <path d="M400 180 L400 236" />
    <path d="M400 290 L400 346" />
    <path d="M400 390 L400 446" />
    <path d="M400 490 L400 546" />
  </g>

  <path d="M223 0 L227 0 L573 600 L567 600 Z" fill="#d6d8db" opacity="0.7" />
  <path d="M573 0 L577 0 L597 600 L593 600 Z" fill="#d6d8db" opacity="0.7" />

  <circle cx="115" cy="460" r="18" fill="#0f172a" opacity="0.7" />
  <circle cx="127" cy="450" r="8" fill="#65a30d" />
  <circle cx="672" cy="420" r="16" fill="#0f172a" opacity="0.7" />
  <circle cx="684" cy="410" r="10" fill="#65a30d" />

  <rect x="0" y="560" width="800" height="40" fill="rgba(255,255,255,0.04)" />
</svg>
